<svg width="30" height="30" viewBox="0 0 30 30" fill="none" xmlns="http://www.w3.org/2000/svg">
<path d="M22.4968 23.7241C20.4222 25.7987 15.1093 23.8493 10.6301 19.3701C6.15086 14.8909 4.20152 9.57802 6.2761 7.50343L7.64205 6.13748C8.58504 5.19449 10.1389 5.21942 11.1126 6.19316L13.2283 8.3089C14.2021 9.28264 14.227 10.8365 13.284 11.7795L12.9906 12.0728C12.4815 12.582 12.4317 13.4033 12.9048 13.9766C13.3611 14.5296 13.853 15.0804 14.3864 15.6138C14.9198 16.1472 15.4706 16.6391 16.0236 17.0954C16.5969 17.5685 17.4182 17.5187 17.9273 17.0096L18.2207 16.7162C19.1637 15.7732 20.7176 15.7981 21.6913 16.7719L23.807 18.8876C24.7808 19.8613 24.8057 21.4152 23.8627 22.3581L22.4968 23.7241Z" fill="#333333"/>
<path d="M17.8447 11.9848L17.8447 8.68149L21.148 11.9848L17.8447 11.9848Z" stroke="#333333" stroke-width="2"/>
<rect x="17.0146" y="10.9145" width="7.38781" height="2.68702" transform="rotate(-45 17.0146 10.9145)" fill="#333333"/>
</svg>
